<svg height="512" viewBox="0 0 64 64" width="512" xmlns="http://www.w3.org/2000/svg"><g id="saving-marketing-seo-money-piggy"><path d="m11.52 52.13a15.89 15.89 0 0 1 -4.23-8.13h-2.29a2.006 2.006 0 0 1 -2-2v-2a2.006 2.006 0 0 1 2-2h2.29a16.009 16.009 0 0 1 8.7-11.37h-.02v-8.63c3.91 1.29 6.03 6.99 6.03 7h6.52c1.17 1.68 20.15 3.04 20.88 2.37a16 16 0 0 1 -6.4 29.49v2.14a2.006 2.006 0 0 1 -2 2h-2a2.006 2.006 0 0 1 -2-2v-2h-14v2a2.006 2.006 0 0 1 -2 2h-2a2.006 2.006 0 0 1 -2-2v-3.17a16.091 16.091 0 0 1 -5.48-3.7z" fill="#ffdaaa"/><path d="m57 41a15.985 15.985 0 0 1 -14 15.86v2.14a2.006 2.006 0 0 1 -2 2h-2a1.976 1.976 0 0 1 -1.5-.69 1.925 1.925 0 0 0 .5-1.31v-2.14a15.992 15.992 0 0 0 6.53-29.4c2.66.13 4.64.12 4.87-.09a16.017 16.017 0 0 1 7.6 13.63z" fill="#ffb655"/><path d="m44.53 27.46a2.825 2.825 0 0 0 -.29-.02.343.343 0 0 0 .16-.07 1.014 1.014 0 0 1 .13.09z" fill="#ffb655"/><g fill="#ffde55"><circle cx="40" cy="17" r="14"/><circle cx="40" cy="17" r="14"/><path d="m54 17h-4a9.966 9.966 0 0 0 -1.34-5l3.46-2a13.854 13.854 0 0 1 1.88 7z"/></g><path d="m50 17h4a13.854 13.854 0 0 1 -1.88 7l-3.46-2a9.966 9.966 0 0 0 1.34-5z" fill="#c6c5ca"/><path d="m52.12 10-3.46 2a10.19 10.19 0 0 0 -3.66-3.66l2-3.46a13.821 13.821 0 0 1 5.12 5.12z" fill="#c6c5ca"/><path d="m48.66 22 3.46 2a13.821 13.821 0 0 1 -5.12 5.12l-2-3.46a10.19 10.19 0 0 0 3.66-3.66z" fill="#ffde55"/><path d="m45 25.66 2 3.46a13.854 13.854 0 0 1 -7 1.88v-4a9.966 9.966 0 0 0 5-1.34z" fill="#c6c5ca"/><path d="m47 4.88-2 3.46a9.966 9.966 0 0 0 -5-1.34v-4a13.854 13.854 0 0 1 7 1.88z" fill="#ffde55"/><path d="m40 27v4a13.854 13.854 0 0 1 -7-1.88l2-3.46a9.966 9.966 0 0 0 5 1.34z" fill="#ffde55"/><path d="m40 3v4a9.966 9.966 0 0 0 -5 1.34l-2-3.46a13.854 13.854 0 0 1 7-1.88z" fill="#c6c5ca"/><path d="m33 4.88 2 3.46a10.19 10.19 0 0 0 -3.66 3.66l-3.46-2a13.821 13.821 0 0 1 5.12-5.12z" fill="#ffde55"/><path d="m35 25.66-2 3.46a13.821 13.821 0 0 1 -5.12-5.12l3.46-2a10.19 10.19 0 0 0 3.66 3.66z" fill="#c6c5ca"/><path d="m27.88 10 3.46 2a9.966 9.966 0 0 0 -1.34 5h-4a13.854 13.854 0 0 1 1.88-7z" fill="#c6c5ca"/><path d="m31.34 22-3.46 2a13.854 13.854 0 0 1 -1.88-7h4a9.966 9.966 0 0 0 1.34 5z" fill="#ffde55"/><path d="m50 17a10 10 0 0 1 -17.81 6.24 9.85 9.85 0 0 0 3.81.76 10 10 0 0 0 7.81-16.24 9.991 9.991 0 0 1 6.19 9.24z" fill="#ffcd00"/><path d="m42.384 51.9.246 1.985a13 13 0 0 0 11.37-12.885h-2a10.991 10.991 0 0 1 -9.616 10.9z"/><path d="m39 24h2v-2a2 2 0 0 0 2-2v-2a2 2 0 0 0 -2-2h-2v-2h4v-2h-2v-2h-2v2a2 2 0 0 0 -2 2v2a2 2 0 0 0 2 2h2v2h-4v2h2z"/><path d="m61 38h-2a2.988 2.988 0 0 0 -1.23.27 16.913 16.913 0 0 0 -6.82-11.06 14.987 14.987 0 1 0 -24.21-3.21h-4.09c-.79-1.88-2.91-5.81-6.37-6.95a1 1 0 0 0 -1.31.95v8.03a17.057 17.057 0 0 0 -8.49 10.97h-1.48a3.009 3.009 0 0 0 -3 3v2a3.009 3.009 0 0 0 3 3h1.48a16.957 16.957 0 0 0 9.52 11.49v2.51a3.009 3.009 0 0 0 3 3h2a3.009 3.009 0 0 0 3-3v-1h12v1a3.009 3.009 0 0 0 3 3h2a3.009 3.009 0 0 0 3-3v-1.28a17 17 0 0 0 14-16.72 1 1 0 0 1 1-1h1v7h2v-8a1 1 0 0 0 -1-1zm-9.29-15.39-1.73-1.01a11.089 11.089 0 0 0 .97-3.6h2a13.022 13.022 0 0 1 -1.24 4.61zm-.99 1.73a13.244 13.244 0 0 1 -3.38 3.38l-1-1.74a11.406 11.406 0 0 0 2.64-2.64zm2.23-8.34h-2a11.089 11.089 0 0 0 -.97-3.6l1.73-1.01a13.022 13.022 0 0 1 1.24 4.61zm-5.61-9.72a13.244 13.244 0 0 1 3.38 3.38l-1.74 1a11.406 11.406 0 0 0 -2.64-2.64zm-6.34-2.23a13.022 13.022 0 0 1 4.61 1.24l-1.01 1.73a11.089 11.089 0 0 0 -3.6-.97zm8 12.95a9 9 0 1 1 -9-9 9.014 9.014 0 0 1 9 9zm-3.39 11.71a13.022 13.022 0 0 1 -4.61 1.24v-2a11.089 11.089 0 0 0 3.6-.97zm-6.61-.76v2a13.022 13.022 0 0 1 -4.61-1.24l1.01-1.73a11.089 11.089 0 0 0 3.6.97zm-5.34-1.97-1 1.74a13.244 13.244 0 0 1 -3.38-3.38l1.74-1a11.406 11.406 0 0 0 2.64 2.64zm5.34-21.93v2a11.089 11.089 0 0 0 -3.6.97l-1.01-1.73a13.022 13.022 0 0 1 4.61-1.24zm-6.34 2.23 1 1.74a11.406 11.406 0 0 0 -2.64 2.64l-1.74-1a13.244 13.244 0 0 1 3.38-3.38zm-4.37 5.11 1.73 1.01a11.089 11.089 0 0 0 -.97 3.6h-2a13.022 13.022 0 0 1 1.24-4.61zm.76 6.61a11.089 11.089 0 0 0 .97 3.6l-1.73 1.01a13.022 13.022 0 0 1 -1.24-4.61zm13.83 37.87a1 1 0 0 0 -.88.99v2.14a1 1 0 0 1 -1 1h-2a1 1 0 0 1 -1-1v-2a1 1 0 0 0 -1-1h-14a1 1 0 0 0 -1 1v2a1 1 0 0 1 -1 1h-2a1 1 0 0 1 -1-1v-3.17a1.016 1.016 0 0 0 -.62-.93 15.243 15.243 0 0 1 -3.77-2.21 11.118 11.118 0 0 0 6.35-7.41l-1.92-.56c-1.12 3.79-3.86 5.99-6.16 6.34a14.833 14.833 0 0 1 -3.61-7.25 1 1 0 0 0 -.98-.81h-2.29a1 1 0 0 1 -1-1v-2a1 1 0 0 1 1-1h2.29a1 1 0 0 0 .98-.81 15.058 15.058 0 0 1 8.16-10.66 1 1 0 0 0 .54-1.04v-6.87c2.52 1.73 3.99 5.46 4.08 5.7a1 1 0 0 0 .95.68h6.03a14.947 14.947 0 0 0 21.44 2.62 14.992 14.992 0 0 1 -6.59 27.25z"/><path d="m18 35a2 2 0 0 1 -2-2h-2a4 4 0 0 0 8 0h-2a2 2 0 0 1 -2 2z"/><path d="m54 8h2v-2h2v-2h-2v-2h-2v2h-2v2h2z"/><path d="m60 10v-2h-2v2h-2v2h2v2h2v-2h2v-2z"/><path d="m24 8h2v-2h2v-2h-2v-2h-2v2h-2v2h2z"/><path d="m20 14h2v-2h2v-2h-2v-2h-2v2h-2v2h2z"/></g></svg>